<svg xmlns="http://www.w3.org/2000/svg" xmlns:dc="http://purl.org/dc/elements/1.1/" xmlns:ns1="http://sodipodi.sourceforge.net/DTD/sodipodi-0.dtd" xmlns:ns2="http://www.inkscape.org/namespaces/inkscape" xmlns:ns4="http://creativecommons.org/ns#" xmlns:rdf="http://www.w3.org/1999/02/22-rdf-syntax-ns#" id="bN-svg8" version="1.1" viewBox="0 0 10 10" ns1:docname="bN.svg" ns2:version="0.92.5 (2060ec1f9f, 2020-04-08)">
  <ns1:namedview pagecolor="#ffffff" bordercolor="#666666" borderopacity="1" objecttolerance="10" gridtolerance="10" guidetolerance="10" ns2:pageopacity="0" ns2:pageshadow="2" ns2:window-width="2560" ns2:window-height="1409" id="bN-namedview9" showgrid="bN-false" ns2:zoom="6.2441665" ns2:cx="33.879946" ns2:cy="-7.3158071" ns2:window-x="2560" ns2:window-y="0" ns2:window-maximized="1" ns2:current-layer="g906" showguides="true" ns2:guide-bbox="true" ns2:document-units="mm">
    <ns1:guide position="-6.9811812,2.78648" orientation="0,1" id="bN-guide834" ns2:locked="false" />
    <ns1:guide position="-2.838983,3.2097457" orientation="0,1" id="bN-guide836" ns2:locked="false" />
    <ns1:guide position="5,8.7076271" orientation="1,0" id="bN-guide817" ns2:locked="false" />
  </ns1:namedview>
  <defs id="bN-defs2" />
  <metadata id="bN-metadata5">
    <rdf:RDF>
      <ns4:Work rdf:about="">
        <dc:format>image/svg+xml</dc:format>
        <dc:type rdf:resource="http://purl.org/dc/dcmitype/StillImage" />
        <dc:title />
      </ns4:Work>
    </rdf:RDF>
  </metadata>
  <g transform="translate(0,-287)" id="bN-layer1" style="fill:#ffffff;fill-opacity:1">
    <g transform="matrix(1.0736137,0,0,1,-0.23322654,0.02910263)" style="fill:#ffffff;fill-opacity:1;stroke-width:0.09651081;stroke-miterlimit:4;stroke-dasharray:none" id="bN-g906">
      <path id="bN-path886-5" style="fill:#000000;fill-opacity:1;stroke:none;stroke-width:0.38604324;stroke-linecap:butt;stroke-linejoin:miter;stroke-miterlimit:4;stroke-dasharray:none;stroke-opacity:1" d="m 6.5422048,294.17824 c 1.077612,0 1.124675,0.85728 1.124675,1.49455 H 2.068755 c 0,-0.64896 0.046562,-1.49455 1.1241734,-1.49455 z" />
      <path id="bN-path928" d="M 6.4242163,293.76115 H 3.3095785 c 0.0424,-1.22346 1.357078,-1.87383 1.4168809,-2.4641 0.059803,-0.59028 -0.2080426,-0.7423 -0.2080426,-0.7423 0,0 -0.1834942,0.7095 -0.4174346,0.85452 -0.2339403,0.14502 -0.7784055,0.28131 -0.7784055,0.28131 0,0 -0.3820356,0.35717 -0.6072197,0.33229 -0.2251841,-0.0249 -0.4178569,-0.58216 -0.4178569,-0.58216 l 0.7646188,-1.2611 0.3873896,-0.89394 0.3655417,-0.41302 0.1566535,-0.60659 0.4401244,0.53348 c 2.423105,0 2.9484812,3.23531 2.0123882,4.96161 z" style="fill:#000000;fill-opacity:1;stroke:none;stroke-width:0.36607537;stroke-linecap:butt;stroke-linejoin:miter;stroke-miterlimit:4;stroke-dasharray:none;stroke-opacity:1" ns2:connector-curvature="0" ns1:nodetypes="ccccsccccccccc" />
    </g>
  </g>
</svg>