<svg xmlns="http://www.w3.org/2000/svg" xmlns:xlink="http://www.w3.org/1999/xlink" id="wN-knight" version="1.1" viewBox="0 0 933 933"><style id="wN-style-base">.base{fill-opacity:1;fill-rule:evenodd;stroke-miterlimit:4;stroke-dasharray:none;stroke-linecap:round;stroke-linejoin:round;stroke-opacity:1}.stroke-medium{stroke-width:20}.stroke-color{stroke:#000}</style><defs id="wN-defs2202"><linearGradient xlink:href="#wN-fillGradient" id="wN-main-gradient" x1="824.6" x2="992.7" y1="119.5" y2="168.5" gradientTransform="translate(-3372 -24) scale(4.2241)" gradientUnits="userSpaceOnUse" /><linearGradient id="wN-fillGradient"><stop id="wN-stop0" offset="0" stop-color="#fff" stop-opacity="1" /><stop id="wN-stop1" offset="1" stop-color="#bfd3d7" stop-opacity="1" /></linearGradient></defs><path id="wN-boundary" fill="none" stroke-width="35" d="m394 44-24 83-59-68-4 89c-91 91-38 111-172 316-9 13-25 24-29 42-15 80 88 60 106 69 71-57 100-58 137-98 42 15 108-3 147-45-26 77-136 132-169 267 39 37 0 74-47 71-52 12-34 109 19 109l452-3c63 0 72-92 30-108-40 0-58-41-26-69 4-74 3-143-12-214-2-7 2-22 10-24-6-23-30-45-40-69-5-11-18-17 19-18-11-22-61-58-76-78-6-7 25-13 19-19-35-37-85-50-109-68-8-6 23-15 14-21-33-21-102-48-145-65z" class="base stroke-color" /><path id="wN-main" fill="url(#wN-main-gradient)" d="m394 44-24 83-59-68-4 89c-91 91-38 111-172 316-9 13-25 24-29 42-15 80 88 60 106 69 71-57 100-58 137-98 42 15 108-3 147-45-26 77-136 132-169 267 39 37 0 74-47 71-52 12-34 109 19 109l452-3c63 0 72-92 30-108-40 0-58-41-26-69 4-74 3-143-12-214-2-7 2-22 10-24-6-23-30-45-40-69-5-11-18-17 19-18-11-22-61-58-76-78-6-7 25-13 19-19-35-37-85-50-109-68-8-6 23-15 14-21-33-21-102-48-145-65z" class="base stroke-color stroke-medium" /><path id="wN-eyebrow" fill="none" d="M336 282c-28 2-50 16-65 41" class="base stroke-color stroke-medium" /><path id="wN-eye" fill="none" d="M310 316c12 8 25 5 22-12" class="base stroke-color stroke-medium" /><path id="wN-nose" fill="none" d="M155 501c-13-5-23 17-15 17" class="base stroke-color stroke-medium" /><path id="wN-cheek" fill="none" d="M508 405c10-13 9-19 11-27" class="base stroke-color stroke-medium" /><path id="wN-deco-lines" fill="none" d="M644 699H370zm64 64H360z" class="base stroke-color stroke-medium" opacity=".5" /><path id="wN-deco-side" fill="none" d="M723 876c63 0 78-76 36-92-39 0-58-60-25-88 3-74 3-143-13-213-2-7 2-23 11-24-7-24-31-36-41-60-5-12-18-17 20-19-12-21-61-57-77-77-5-7 25-13 19-20-34-36-84-49-109-68-8-6 23-14 15-20-33-22-81-55-124-72" class="base stroke-color stroke-medium" opacity=".5" /></svg>